<svg xmlns="http://www.w3.org/2000/svg" width="12" height="12" viewBox="0 0 12 12">
  <path id="history-solid" d="M8,13.989a6,6,0,0,0,9.766,4.683.58.58,0,0,0,.044-.861l-.273-.273a.582.582,0,0,0-.772-.048,4.452,4.452,0,1,1,.284-6.733l-1.228,1.228a.387.387,0,0,0,.274.661h3.517A.387.387,0,0,0,20,12.258V8.741a.387.387,0,0,0-.661-.274L18.145,9.662A6,6,0,0,0,8,13.989Zm4.377,1.906-.238-.306a.581.581,0,0,1,.1-.815l.985-.766V11.484a.581.581,0,0,1,.581-.581h.387a.581.581,0,0,1,.581.581v3.282L13.192,16A.581.581,0,0,1,12.377,15.895Z" transform="translate(-8 -8)" fill="#9b9b9b"/>
</svg>
