<svg id="Group_297" data-name="Group 297" xmlns="http://www.w3.org/2000/svg" width="48" height="48" viewBox="0 0 48 48">
  <rect id="Rectangle_406" data-name="Rectangle 406" width="48" height="48" fill="#2daae1"/>
  <g id="Group_297-2" data-name="Group 297" transform="translate(8.998 12)">
    <path id="Path_899" data-name="Path 899" d="M402.863,2487.356a12.449,12.449,0,0,1-3.91,1.472,6.186,6.186,0,0,0-4.492-1.914,6.065,6.065,0,0,0-6,7.44,17.568,17.568,0,0,1-12.686-6.331,5.967,5.967,0,0,0-.834,3.047,6.036,6.036,0,0,0,2.739,5.042,6.212,6.212,0,0,1-2.788-.758v.076a6.09,6.09,0,0,0,4.939,5.942,6.252,6.252,0,0,1-1.623.213,6.34,6.34,0,0,1-1.159-.109,6.154,6.154,0,0,0,5.75,4.208,12.481,12.481,0,0,1-7.645,2.593,12.967,12.967,0,0,1-1.469-.084,17.648,17.648,0,0,0,9.437,2.721,17.247,17.247,0,0,0,17.511-17.238c0-.263,0-.525-.015-.784a12.386,12.386,0,0,0,3.07-3.137,12.425,12.425,0,0,1-3.535.953A6.094,6.094,0,0,0,402.863,2487.356Z" transform="translate(-373.688 -2486.914)" fill="#fff"/>
  </g>
</svg>
