<svg xmlns="http://www.w3.org/2000/svg" width="48" height="48" viewBox="0 0 48 48">
  <g id="Group_297" data-name="Group 297" transform="translate(-17 -54)">
    <rect id="Rectangle_406" data-name="Rectangle 406" width="48" height="48" transform="translate(17 54)" fill="none"/>
    <g id="google_icon-icons.com_62736" transform="translate(9.523 56.48)">
      <path id="Path_988" data-name="Path 988" d="M42.4,15.074A14.819,14.819,0,0,1,46.409,10,15.425,15.425,0,0,1,64.118,8.653a17.283,17.283,0,0,1,2.128,1.517c.167.136.148.216.006.352q-2.063,2.054-4.114,4.12c-.16.16-.247.148-.419.019a9.089,9.089,0,0,0-14.051,4.151,1.793,1.793,0,0,1-.111.216c-.8-.6-1.6-1.209-2.387-1.82Q43.782,16.144,42.4,15.074Z" transform="translate(-24.324 0)" fill="#e94335"/>
      <path id="Path_989" data-name="Path 989" d="M47.463,303.8a16.091,16.091,0,0,0,.82,1.746,8.874,8.874,0,0,0,6.032,4.293A9.643,9.643,0,0,0,61.1,308.8c.074-.037.148-.074.216-.111.037.037.068.08.1.111q2.387,1.85,4.78,3.7a12.2,12.2,0,0,1-2.56,1.9,14.834,14.834,0,0,1-8.648,1.912,15.145,15.145,0,0,1-9.813-4.515,14.108,14.108,0,0,1-2.881-4.071c.66-.506,1.32-1.005,1.98-1.511C45.341,305.41,46.4,304.608,47.463,303.8Z" transform="translate(-24.23 -278.986)" fill="#34a853"/>
      <path id="Path_990" data-name="Path 990" d="M276.948,225.427q-2.387-1.85-4.78-3.7a.894.894,0,0,1-.1-.111,9.484,9.484,0,0,0,1.561-1.382,7.173,7.173,0,0,0,1.511-3.059c.031-.142.006-.191-.136-.185-.074.006-.142,0-.216,0-2.517,0-5.039-.006-7.556.006-.278,0-.339-.074-.333-.339q.019-2.683,0-5.366c0-.228.062-.29.29-.29q6.921.009,13.847,0c.2,0,.278.049.327.259a14.533,14.533,0,0,1,.123,5.113,16.714,16.714,0,0,1-1.03,3.978,14.151,14.151,0,0,1-3.343,4.965C277.053,225.359,277,225.39,276.948,225.427Z" transform="translate(-234.97 -191.91)" fill="#4285f3"/>
      <path id="Path_991" data-name="Path 991" d="M23.233,155.733c-1.061.808-2.122,1.61-3.183,2.418-.66.5-1.32,1.005-1.98,1.511a13.346,13.346,0,0,1-1.116-2.992,15.551,15.551,0,0,1-.315-6.082A14.152,14.152,0,0,1,18.07,146c.925.709,1.844,1.425,2.769,2.134q1.194.916,2.387,1.82a17.932,17.932,0,0,0-.389,1.986,9.572,9.572,0,0,0,.358,3.621A.506.506,0,0,1,23.233,155.733Z" transform="translate(0 -130.92)" fill="#fabb06"/>
    </g>
  </g>
</svg>
