<svg xmlns="http://www.w3.org/2000/svg" width="403.004" height="46.996" viewBox="0 0 403.004 46.996">
  <g id="Union_3" data-name="Union 3" transform="translate(-45335.996 -37614.004)" fill="#fff">
    <path d="M 45537.00390625 37659.95703125 L 45531.98046875 37650.765625 L 45531.83984375 37650.50390625 L 45531.54296875 37650.50390625 L 45354.5 37650.50390625 C 45352.0703125 37650.50390625 45349.7109375 37650.02734375 45347.4921875 37649.08984375 C 45345.34765625 37648.1796875 45343.421875 37646.8828125 45341.76953125 37645.23046875 C 45340.1171875 37643.57421875 45338.81640625 37641.6484375 45337.91015625 37639.50390625 C 45336.97265625 37637.28515625 45336.49609375 37634.9296875 45336.49609375 37632.5 C 45336.49609375 37627.69140625 45338.3671875 37623.171875 45341.76953125 37619.7734375 C 45345.16796875 37616.375 45349.69140625 37614.50390625 45354.5 37614.50390625 L 45720.49609375 37614.50390625 C 45725.30859375 37614.50390625 45729.83203125 37616.375 45733.23046875 37619.7734375 C 45736.62890625 37623.171875 45738.5 37627.69140625 45738.5 37632.5 C 45738.5 37634.9296875 45738.0234375 37637.28515625 45737.0859375 37639.5078125 C 45736.1796875 37641.6484375 45734.8828125 37643.57421875 45733.23046875 37645.23046875 C 45729.828125 37648.62890625 45725.30859375 37650.50390625 45720.49609375 37650.50390625 L 45542.44921875 37650.50390625 L 45542.15234375 37650.50390625 L 45542.01171875 37650.765625 L 45537.00390625 37659.95703125 Z" stroke="none"/>
    <path d="M 45537.00390625 37658.91015625 L 45541.5703125 37650.52734375 L 45541.85546875 37650.00390625 L 45542.44921875 37650.00390625 L 45720.49609375 37650.00390625 C 45725.171875 37650.00390625 45729.5703125 37648.18359375 45732.875 37644.875 C 45736.1796875 37641.5703125 45738 37637.17578125 45738 37632.5 C 45738 37627.82421875 45736.1796875 37623.4296875 45732.875 37620.12890625 C 45729.5703125 37616.82421875 45725.17578125 37615.00390625 45720.49609375 37615.00390625 L 45354.5 37615.00390625 C 45349.82421875 37615.00390625 45345.4296875 37616.82421875 45342.12109375 37620.12890625 C 45338.81640625 37623.4296875 45336.99609375 37627.82421875 45336.99609375 37632.5 C 45336.99609375 37637.171875 45338.81640625 37641.5703125 45342.125 37644.875 C 45345.4296875 37648.18359375 45349.82421875 37650.00390625 45354.5 37650.00390625 L 45531.54296875 37650.00390625 L 45532.13671875 37650.00390625 L 45532.421875 37650.5234375 L 45537.00390625 37658.91015625 M 45537.00390625 37661 L 45531.54296875 37651.00390625 L 45354.5 37651.00390625 C 45344.28125 37651.00390625 45335.99609375 37642.71484375 45335.99609375 37632.5 C 45335.99609375 37622.28125 45344.28125 37614.00390625 45354.5 37614.00390625 L 45720.49609375 37614.00390625 C 45730.72265625 37614.00390625 45739 37622.28125 45739 37632.5 C 45739 37642.71484375 45730.72265625 37651.00390625 45720.49609375 37651.00390625 L 45542.44921875 37651.00390625 L 45537.00390625 37661 Z" stroke="none" fill="#fed800"/>
  </g>
</svg>
