<svg xmlns="http://www.w3.org/2000/svg" width="209.723" height="56.158" viewBox="0 0 209.723 56.158">
  <g id="Group_127" data-name="Group 127" transform="translate(-832.962 -1834.397)">
    <g id="Group_126" data-name="Group 126" transform="translate(832.962 1834.397)">
      <path id="Path_745" data-name="Path 745" d="M167.149,68.1,150.691,32.259V60.713q0,3.927.85,4.9a4.648,4.648,0,0,0,3.674,1.32h1.507V68.1H141.9V66.933h1.508a4.326,4.326,0,0,0,3.831-1.632q.69-1.006.691-4.588V32.888A9.745,9.745,0,0,0,147.3,28.8a3.487,3.487,0,0,0-1.619-1.523,8.675,8.675,0,0,0-3.784-.614v-1.16h12.06l15.454,33.322,15.2-33.322h12.06v1.16H195.2a4.358,4.358,0,0,0-3.862,1.635q-.692,1.006-.691,4.585V60.713q0,3.927.88,4.9a4.648,4.648,0,0,0,3.674,1.32h1.476V68.1h-18.09V66.933h1.508a4.283,4.283,0,0,0,3.832-1.632q.692-1.006.69-4.588V32.259L168.185,68.1Z" transform="translate(-141.898 -24.532)" fill="#221815"/>
      <path id="Path_746" data-name="Path 746" d="M197,34.192a12.751,12.751,0,0,1,10.49,4.963,15.24,15.24,0,0,1,3.36,9.736A18.366,18.366,0,0,1,209,56.712a13.163,13.163,0,0,1-12.343,7.978,12.194,12.194,0,0,1-10.335-5.184,16.055,16.055,0,0,1-3.233-9.8,17.407,17.407,0,0,1,1.961-7.867,13.437,13.437,0,0,1,5.167-5.78A13.261,13.261,0,0,1,197,34.192m-.974,2.042a6.561,6.561,0,0,0-3.345.99,6.936,6.936,0,0,0-2.717,3.469,16.724,16.724,0,0,0-1.036,6.375,22.206,22.206,0,0,0,2.5,10.836q2.5,4.554,6.579,4.555a6.129,6.129,0,0,0,5.027-2.515q1.978-2.511,1.977-8.635,0-7.664-3.3-12.062a6.8,6.8,0,0,0-5.686-3.014" transform="translate(-121.575 -20.246)" fill="#221815"/>
      <path id="Path_747" data-name="Path 747" d="M215.592,40.285q5.056-6.091,9.64-6.093a6.94,6.94,0,0,1,4.053,1.178,7.886,7.886,0,0,1,2.7,3.878,17.955,17.955,0,0,1,.691,5.778V57.307a10.382,10.382,0,0,0,.439,3.708,2.574,2.574,0,0,0,1.116,1.223,6.317,6.317,0,0,0,2.841.439V63.81H222.848V62.678h.6a4.783,4.783,0,0,0,2.811-.612,3.209,3.209,0,0,0,1.114-1.8,18.41,18.41,0,0,0,.125-2.954V45.532a11.959,11.959,0,0,0-1.02-5.7,3.647,3.647,0,0,0-3.439-1.774q-3.739,0-7.443,4.083V57.307a10.817,10.817,0,0,0,.345,3.613,2.9,2.9,0,0,0,1.21,1.335,7.491,7.491,0,0,0,3.124.423V63.81H206.043V62.678h.629q2.2,0,2.967-1.114t.771-4.256V46.631a46.378,46.378,0,0,0-.236-6.313,2.716,2.716,0,0,0-.723-1.541,1.97,1.97,0,0,0-1.3-.406,6.077,6.077,0,0,0-2.106.469l-.47-1.129,8.668-3.519h1.352Z" transform="translate(-110.478 -20.246)" fill="#221815"/>
      <path id="Path_748" data-name="Path 748" d="M235.069,45.887q-.034,6.4,3.108,10.051a9.487,9.487,0,0,0,7.382,3.642,7.993,7.993,0,0,0,4.915-1.556,11.479,11.479,0,0,0,3.5-5.323l.974.629a14.97,14.97,0,0,1-3.832,7.835,10.231,10.231,0,0,1-7.947,3.535,11.6,11.6,0,0,1-8.873-4.037q-3.689-4.037-3.69-10.851,0-7.379,3.784-11.511a12.344,12.344,0,0,1,9.5-4.129,10.623,10.623,0,0,1,7.947,3.188,11.688,11.688,0,0,1,3.109,8.528Zm0-1.822h13.315a12.278,12.278,0,0,0-.659-3.895,6.249,6.249,0,0,0-2.34-2.764,5.894,5.894,0,0,0-3.251-1.005,6.474,6.474,0,0,0-4.663,2.027,8.784,8.784,0,0,0-2.4,5.638" transform="translate(-98.125 -20.257)" fill="#221815"/>
      <path id="Path_749" data-name="Path 749" d="M280.446,68.888a25.025,25.025,0,0,0,6.927,8.135,16.793,16.793,0,0,0,8.463,2.984v1.005a34.473,34.473,0,0,1-9.264-1.743,40.36,40.36,0,0,1-9.346-4.4,45.539,45.539,0,0,1-7.615-5.984,30.3,30.3,0,0,1-7.161-3.862,21,21,0,0,1-5.951-7.491,24.193,24.193,0,0,1-2.121-10.5,21.747,21.747,0,0,1,6.187-15.862,20.2,20.2,0,0,1,14.982-6.314,19.444,19.444,0,0,1,14.464,6.329,22.075,22.075,0,0,1,6.108,15.971,22.524,22.524,0,0,1-4.35,13.726,21.4,21.4,0,0,1-11.323,8.008M275.17,27.273a11.505,11.505,0,0,0-9.2,4.083q-4.4,5.119-4.4,15.674,0,10.332,4.459,15.923a11.142,11.142,0,0,0,9.138,4.3,11.815,11.815,0,0,0,9.516-4.3q4.241-5.09,4.24-15.015A31.5,31.5,0,0,0,286.6,35.094a13.065,13.065,0,0,0-4.758-5.921,12.112,12.112,0,0,0-6.674-1.9" transform="translate(-86.396 -24.854)" fill="#221815"/>
    </g>
  </g>
</svg>
