<svg xmlns="http://www.w3.org/2000/svg" width="12.5" height="9.723" viewBox="0 0 12.5 9.723">
  <path id="comments-solid" d="M9.028,35.472C9.028,33.554,7.007,32,4.514,32S0,33.554,0,35.472a2.944,2.944,0,0,0,.825,2,4.885,4.885,0,0,1-.777,1.183.173.173,0,0,0-.033.189.17.17,0,0,0,.158.1A3.821,3.821,0,0,0,2.1,38.4a5.522,5.522,0,0,0,2.415.543C7.007,38.944,9.028,37.391,9.028,35.472Zm2.648,4.774a2.94,2.94,0,0,0,.825-2,3.61,3.61,0,0,0-2.806-3.214,3.225,3.225,0,0,1,.028.436c0,2.3-2.337,4.167-5.208,4.167a6.506,6.506,0,0,1-.688-.041,4.691,4.691,0,0,0,4.16,2.125A5.492,5.492,0,0,0,10.4,41.18a3.821,3.821,0,0,0,1.925.543.171.171,0,0,0,.158-.1.174.174,0,0,0-.033-.189A4.832,4.832,0,0,1,11.675,40.247Z" transform="translate(0 -32)" fill="#ffd800"/>
</svg>
