<svg xmlns="http://www.w3.org/2000/svg" xmlns:xlink="http://www.w3.org/1999/xlink" width="40" height="40" viewBox="0 0 40 40">
  <defs>
    <linearGradient id="linear-gradient" y1="0.409" x2="1" y2="0.401" gradientUnits="objectBoundingBox">
      <stop offset="0" stop-color="#a4a4a4"/>
      <stop offset="0.5" stop-color="#fff"/>
      <stop offset="1" stop-color="#a4a4a4"/>
    </linearGradient>
  </defs>
  <g id="Group_205" data-name="Group 205" transform="translate(20288 17840)">
    <g id="Group_198" data-name="Group 198" transform="translate(-20678 -19931)">
      <path id="Path_868" data-name="Path 868" d="M0,0H40V40H0Z" transform="translate(390 2091)" fill="#221815"/>
      <g id="p" transform="translate(401 2104)">
        <text id="_02" data-name="02" transform="translate(0 20)" fill="#fff" font-size="17" font-family="NotoSansJP-Regular, Noto Sans JP"><tspan x="0" y="0">02</tspan></text>
      </g>
    </g>
    <path id="crown-solid" d="M11.71,9.936H2.484a.356.356,0,0,0-.355.355V11a.356.356,0,0,0,.355.355H11.71A.356.356,0,0,0,12.065,11v-.71A.356.356,0,0,0,11.71,9.936Zm1.419-7.1A1.065,1.065,0,0,0,12.065,3.9a1.043,1.043,0,0,0,.1.439l-1.606.963a.709.709,0,0,1-.98-.257L7.769,1.885a1.065,1.065,0,1,0-1.344,0L4.618,5.048a.709.709,0,0,1-.98.257l-1.6-.963a1.064,1.064,0,1,0-.969.625,1.087,1.087,0,0,0,.171-.018l1.6,4.276h8.517l1.6-4.276a1.087,1.087,0,0,0,.171.018,1.065,1.065,0,0,0,0-2.129Z" transform="translate(-20275.098 -17834.678)" fill="url(#linear-gradient)"/>
  </g>
</svg>
