<svg xmlns="http://www.w3.org/2000/svg" width="137.619" height="36.85" viewBox="0 0 137.619 36.85">
  <g id="Group_193" data-name="Group 193" transform="translate(-832.962 -1834.397)">
    <g id="Group_126" data-name="Group 126" transform="translate(832.962 1834.397)">
      <path id="Path_745" data-name="Path 745" d="M158.468,53.453l-10.8-23.516V48.609q0,2.577.558,3.215a3.05,3.05,0,0,0,2.411.866h.989v.762H141.9v-.762h.99A2.839,2.839,0,0,0,145.4,51.62a6.265,6.265,0,0,0,.454-3.011V30.35a6.394,6.394,0,0,0-.412-2.679,2.288,2.288,0,0,0-1.062-1,5.692,5.692,0,0,0-2.483-.4v-.761h7.913l10.141,21.865,9.974-21.865h7.913v.761h-.968a2.86,2.86,0,0,0-2.534,1.073,6.246,6.246,0,0,0-.454,3.009V48.609q0,2.577.577,3.215a3.05,3.05,0,0,0,2.411.866h.968v.762H165.969v-.762h.99a2.81,2.81,0,0,0,2.515-1.071,6.257,6.257,0,0,0,.453-3.011V29.938L159.148,53.453Z" transform="translate(-141.898 -24.867)" fill="#221815"/>
      <path id="Path_746" data-name="Path 746" d="M192.214,34.192a8.367,8.367,0,0,1,6.883,3.256,10,10,0,0,1,2.2,6.389,12.053,12.053,0,0,1-1.215,5.132,8.637,8.637,0,0,1-8.1,5.235,8,8,0,0,1-6.781-3.4,10.534,10.534,0,0,1-2.122-6.43,11.423,11.423,0,0,1,1.287-5.163,8.817,8.817,0,0,1,3.391-3.793,8.7,8.7,0,0,1,4.452-1.226m-.639,1.34a4.306,4.306,0,0,0-2.2.65,4.551,4.551,0,0,0-1.783,2.277,10.973,10.973,0,0,0-.68,4.184,14.572,14.572,0,0,0,1.639,7.111q1.638,2.988,4.317,2.989a4.022,4.022,0,0,0,3.3-1.65q1.3-1.648,1.3-5.666,0-5.029-2.163-7.915a4.462,4.462,0,0,0-3.731-1.978" transform="translate(-142.722 -25.041)" fill="#221815"/>
      <path id="Path_747" data-name="Path 747" d="M212.148,38.19q3.318-4,6.326-4a4.554,4.554,0,0,1,2.66.773,5.175,5.175,0,0,1,1.773,2.545,11.78,11.78,0,0,1,.454,3.792V49.36a6.811,6.811,0,0,0,.288,2.433,1.689,1.689,0,0,0,.732.8,4.145,4.145,0,0,0,1.864.288v.743h-9.335v-.743h.392a3.138,3.138,0,0,0,1.844-.4,2.106,2.106,0,0,0,.731-1.184,12.078,12.078,0,0,0,.082-1.938V41.633a7.847,7.847,0,0,0-.669-3.742,2.393,2.393,0,0,0-2.257-1.164q-2.453,0-4.884,2.679V49.36a7.1,7.1,0,0,0,.226,2.371,1.9,1.9,0,0,0,.794.876,4.916,4.916,0,0,0,2.05.277v.743h-9.336v-.743h.413a2.216,2.216,0,0,0,1.947-.731,5.334,5.334,0,0,0,.506-2.793V42.354a30.44,30.44,0,0,0-.155-4.142,1.783,1.783,0,0,0-.474-1.011,1.292,1.292,0,0,0-.855-.267,3.988,3.988,0,0,0-1.382.308l-.309-.741,5.688-2.309h.887Z" transform="translate(-143.172 -25.041)" fill="#221815"/>
      <path id="Path_748" data-name="Path 748" d="M233.535,41.859a9.7,9.7,0,0,0,2.039,6.6,6.225,6.225,0,0,0,4.844,2.39,5.245,5.245,0,0,0,3.225-1.021,7.532,7.532,0,0,0,2.3-3.493l.639.413a9.824,9.824,0,0,1-2.515,5.141,6.714,6.714,0,0,1-5.215,2.32,7.615,7.615,0,0,1-5.822-2.649,10.146,10.146,0,0,1-2.422-7.121q0-4.842,2.483-7.554a8.1,8.1,0,0,1,6.235-2.71,6.971,6.971,0,0,1,5.215,2.092,7.669,7.669,0,0,1,2.04,5.6Zm0-1.2h8.738a8.054,8.054,0,0,0-.432-2.556,4.1,4.1,0,0,0-1.536-1.814,3.867,3.867,0,0,0-2.133-.66,4.248,4.248,0,0,0-3.06,1.33,5.765,5.765,0,0,0-1.577,3.7" transform="translate(-143.674 -25.04)" fill="#221815"/>
      <path id="Path_749" data-name="Path 749" d="M271.484,53.749a16.422,16.422,0,0,0,4.545,5.338,11.019,11.019,0,0,0,5.554,1.958v.66a22.62,22.62,0,0,1-6.079-1.144,26.482,26.482,0,0,1-6.133-2.885,29.884,29.884,0,0,1-5-3.927,19.88,19.88,0,0,1-4.7-2.534A13.78,13.78,0,0,1,255.77,46.3a15.877,15.877,0,0,1-1.392-6.893A14.27,14.27,0,0,1,258.438,29a13.258,13.258,0,0,1,9.831-4.143,12.759,12.759,0,0,1,9.491,4.153,14.485,14.485,0,0,1,4.008,10.48,14.78,14.78,0,0,1-2.855,9.007,14.043,14.043,0,0,1-7.43,5.255m-3.462-27.307a7.55,7.55,0,0,0-6.038,2.679Q259.1,32.48,259.1,39.406q0,6.78,2.926,10.449a7.311,7.311,0,0,0,6,2.823,7.753,7.753,0,0,0,6.244-2.823q2.783-3.34,2.782-9.853a20.67,20.67,0,0,0-1.525-8.428,8.573,8.573,0,0,0-3.122-3.886,7.948,7.948,0,0,0-4.38-1.247" transform="translate(-144.149 -24.854)" fill="#221815"/>
    </g>
  </g>
</svg>
