<svg xmlns="http://www.w3.org/2000/svg" xmlns:xlink="http://www.w3.org/1999/xlink" width="30.543" height="30.543" viewBox="0 0 30.543 30.543">
  <defs>
    <linearGradient id="linear-gradient" x1="0.027" y1="0.407" x2="1" y2="0.401" gradientUnits="objectBoundingBox">
      <stop offset="0" stop-color="#bd9a29"/>
      <stop offset="0.486" stop-color="#fffcd2"/>
      <stop offset="1" stop-color="#bd9a29"/>
    </linearGradient>
  </defs>
  <g id="Group_685" data-name="Group 685" transform="translate(22233 19549)">
    <path id="Path_868" data-name="Path 868" d="M0,0H30.543L0,30.543Z" transform="translate(-22233 -19549)" fill="#221815"/>
    <g id="Group_374" data-name="Group 374" transform="translate(-22229 -19545)">
      <path id="crown-solid" d="M8.484,7.2H1.8a.258.258,0,0,0-.257.257v.514a.258.258,0,0,0,.257.257H8.484a.258.258,0,0,0,.257-.257V7.455A.258.258,0,0,0,8.484,7.2ZM9.513,2.057a.771.771,0,0,0-.771.771.756.756,0,0,0,.071.318l-1.163.7a.514.514,0,0,1-.71-.186L5.629,1.366a.771.771,0,1,0-.974,0L3.345,3.657a.514.514,0,0,1-.71.186l-1.162-.7a.771.771,0,1,0-.7.453A.788.788,0,0,0,.9,3.586l1.162,3.1h6.17l1.162-3.1a.788.788,0,0,0,.124.013.771.771,0,1,0,0-1.542Z" transform="translate(0 0)" fill="url(#linear-gradient)"/>
      <path id="Path_872" data-name="Path 872" d="M2.225,12.951H1.412l-.251-.773a.033.033,0,0,0-.063,0l-.251.773H.034a.033.033,0,0,0-.02.06l.658.478-.251.773a.033.033,0,0,0,.051.037l.658-.478.658.478a.033.033,0,0,0,.051-.037l-.251-.773.658-.478A.033.033,0,0,0,2.225,12.951Z" transform="translate(4.057 -8.403)" fill="#221815"/>
    </g>
  </g>
</svg>
