<svg xmlns="http://www.w3.org/2000/svg" width="10" height="10" viewBox="0 0 10 10">
  <path id="history-solid" d="M8,12.991a5,5,0,0,0,8.138,3.9.484.484,0,0,0,.037-.718l-.227-.227a.485.485,0,0,0-.643-.04,3.71,3.71,0,1,1,.237-5.611L14.518,11.32a.323.323,0,0,0,.228.551h2.931A.323.323,0,0,0,18,11.548V8.617a.323.323,0,0,0-.551-.228l-1,1A5,5,0,0,0,8,12.991Zm3.647,1.588-.2-.255a.484.484,0,0,1,.085-.679l.821-.638V10.9a.484.484,0,0,1,.484-.484h.323a.484.484,0,0,1,.484.484v2.735l-1.319,1.026A.484.484,0,0,1,11.647,14.579Z" transform="translate(-8 -8)" fill="#221815"/>
</svg>
