<svg id="Group_144" data-name="Group 144" xmlns="http://www.w3.org/2000/svg" width="16.155" height="15" viewBox="0 0 16.155 15">
  <g id="check-box">
    <path id="Path_471" data-name="Path 471" d="M12.849.394a.577.577,0,0,1,0,.817L4.773,9.288a.577.577,0,0,1-.817,0L.494,5.827a.578.578,0,0,1,.817-.817L4.364,8.064,12.032.394a.577.577,0,0,1,.817,0Z" transform="translate(3.136 0.928)" fill="red" fill-rule="evenodd"/>
    <path id="Path_472" data-name="Path 472" d="M.175,13.444a1.731,1.731,0,0,0,1.731,1.731H13.444a1.731,1.731,0,0,0,1.731-1.731V7.675a.577.577,0,1,0-1.154,0v5.769a.577.577,0,0,1-.577.577H1.906a.577.577,0,0,1-.577-.577V1.906a.577.577,0,0,1,.577-.577h9.231a.577.577,0,1,0,0-1.154H1.906A1.731,1.731,0,0,0,.175,1.906Z" transform="translate(-0.175 -0.175)" fill="red" fill-rule="evenodd"/>
  </g>
</svg>
