<svg id="Group_155" data-name="Group 155" xmlns="http://www.w3.org/2000/svg" width="242.392" height="45" viewBox="0 0 242.392 45">
  <path id="Path_744" data-name="Path 744" d="M105.959,52.865H49.938a.239.239,0,0,0-.219.14l-1.545,3.312a.241.241,0,0,0,.016.23.239.239,0,0,0,.2.113h56.021a.239.239,0,0,0,.218-.14l1.544-3.312a.238.238,0,0,0-.014-.231.241.241,0,0,0-.2-.112m19.363-23.494a.24.24,0,0,0-.2-.112H72.712a.244.244,0,0,0-.219.14L70.95,32.711a.243.243,0,0,0,.219.343h52.407a.243.243,0,0,0,.219-.14l1.543-3.313a.236.236,0,0,0-.016-.23M92.8,44.716,94.348,41.4a.243.243,0,0,0-.016-.231.24.24,0,0,0-.2-.111H41.721a.239.239,0,0,0-.218.138L39.96,44.513a.242.242,0,0,0,.013.232.248.248,0,0,0,.2.111H92.584a.24.24,0,0,0,.219-.14M59.339,21.252h56.02a.243.243,0,0,0,.219-.14l1.544-3.313a.241.241,0,0,0-.015-.231.243.243,0,0,0-.2-.111H60.882a.239.239,0,0,0-.218.14L59.12,20.908a.243.243,0,0,0,.219.344" transform="translate(-39.936 -17.457)" fill="#ffd800"/>
  <path id="Path_745" data-name="Path 745" d="M158.806,54.024l-11.02-24V49.081q0,2.629.569,3.281a3.112,3.112,0,0,0,2.46.884h1.009v.778H141.9v-.778h1.01a2.9,2.9,0,0,0,2.565-1.093,6.393,6.393,0,0,0,.463-3.072V30.449a6.525,6.525,0,0,0-.42-2.734,2.335,2.335,0,0,0-1.084-1.02,5.809,5.809,0,0,0-2.534-.411v-.777h8.075l10.348,22.312L170.5,25.507h8.075v.777h-.988A2.918,2.918,0,0,0,175,27.379a6.373,6.373,0,0,0-.463,3.07V49.081q0,2.629.589,3.281a3.112,3.112,0,0,0,2.46.884h.988v.778H166.461v-.778h1.01a2.868,2.868,0,0,0,2.566-1.093,6.384,6.384,0,0,0,.462-3.072V30.028l-11,24Z" transform="translate(-39.936 -17.457)" fill="#221815"/>
  <path id="Path_746" data-name="Path 746" d="M192.4,34.192a8.538,8.538,0,0,1,7.024,3.323,10.2,10.2,0,0,1,2.25,6.519,12.3,12.3,0,0,1-1.24,5.237,8.814,8.814,0,0,1-8.265,5.342,8.165,8.165,0,0,1-6.92-3.471,10.75,10.75,0,0,1-2.165-6.561,11.656,11.656,0,0,1,1.313-5.268,9,9,0,0,1,3.46-3.87,8.879,8.879,0,0,1,4.543-1.251m-.652,1.367a4.393,4.393,0,0,0-2.24.663,4.644,4.644,0,0,0-1.819,2.323,11.2,11.2,0,0,0-.694,4.269,14.869,14.869,0,0,0,1.672,7.256q1.671,3.05,4.4,3.05a4.1,4.1,0,0,0,3.366-1.684q1.324-1.682,1.324-5.782,0-5.131-2.207-8.077a4.554,4.554,0,0,0-3.807-2.018" transform="translate(-39.936 -17.457)" fill="#221815"/>
  <path id="Path_747" data-name="Path 747" d="M212.282,38.272q3.386-4.078,6.455-4.08a4.647,4.647,0,0,1,2.714.789,5.281,5.281,0,0,1,1.809,2.6,12.022,12.022,0,0,1,.463,3.869V49.67a6.952,6.952,0,0,0,.294,2.483,1.723,1.723,0,0,0,.747.819,4.23,4.23,0,0,0,1.9.294v.758H217.14v-.758h.4a3.2,3.2,0,0,0,1.882-.41,2.149,2.149,0,0,0,.746-1.208,12.327,12.327,0,0,0,.084-1.978V41.785a8.008,8.008,0,0,0-.683-3.818,2.442,2.442,0,0,0-2.3-1.188q-2.5,0-4.984,2.734V49.67a7.243,7.243,0,0,0,.231,2.419,1.94,1.94,0,0,0,.81.894,5.016,5.016,0,0,0,2.092.283v.758h-9.527v-.758h.421a2.261,2.261,0,0,0,1.987-.746,5.443,5.443,0,0,0,.516-2.85V42.521a31.059,31.059,0,0,0-.158-4.227,1.819,1.819,0,0,0-.484-1.032,1.319,1.319,0,0,0-.872-.272,4.069,4.069,0,0,0-1.41.314l-.315-.756,5.8-2.356h.9Z" transform="translate(-39.936 -17.457)" fill="#221815"/>
  <path id="Path_748" data-name="Path 748" d="M233.6,42.016a9.893,9.893,0,0,0,2.081,6.73,6.352,6.352,0,0,0,4.943,2.439,5.352,5.352,0,0,0,3.291-1.042,7.686,7.686,0,0,0,2.345-3.564l.652.421a10.024,10.024,0,0,1-2.566,5.246,6.851,6.851,0,0,1-5.321,2.367,7.77,7.77,0,0,1-5.941-2.7,10.353,10.353,0,0,1-2.471-7.266q0-4.941,2.534-7.708a8.266,8.266,0,0,1,6.362-2.765,7.113,7.113,0,0,1,5.321,2.135,7.826,7.826,0,0,1,2.082,5.71Zm0-1.22h8.916a8.221,8.221,0,0,0-.441-2.608,4.184,4.184,0,0,0-1.567-1.851,3.946,3.946,0,0,0-2.177-.673,4.335,4.335,0,0,0-3.122,1.357A5.882,5.882,0,0,0,233.6,40.8" transform="translate(-39.936 -17.457)" fill="#221815"/>
  <path id="Path_749" data-name="Path 749" d="M271.833,54.339a16.757,16.757,0,0,0,4.638,5.447,11.244,11.244,0,0,0,5.667,2v.673a23.083,23.083,0,0,1-6.2-1.167,27.024,27.024,0,0,1-6.258-2.944,30.492,30.492,0,0,1-5.1-4.007,20.286,20.286,0,0,1-4.8-2.586,14.063,14.063,0,0,1-3.985-5.016,16.2,16.2,0,0,1-1.42-7.034,14.561,14.561,0,0,1,4.143-10.621,13.529,13.529,0,0,1,10.032-4.228,13.02,13.02,0,0,1,9.685,4.238,14.782,14.782,0,0,1,4.09,10.694,15.082,15.082,0,0,1-2.913,9.191,14.33,14.33,0,0,1-7.582,5.362M268.3,26.474a7.7,7.7,0,0,0-6.161,2.734Q259.194,32.635,259.2,39.7q0,6.918,2.986,10.662a7.461,7.461,0,0,0,6.119,2.881,7.911,7.911,0,0,0,6.372-2.881q2.84-3.408,2.839-10.054a21.091,21.091,0,0,0-1.556-8.6,8.748,8.748,0,0,0-3.186-3.965,8.11,8.11,0,0,0-4.469-1.272" transform="translate(-39.936 -17.457)" fill="#221815"/>
</svg>
