<svg xmlns="http://www.w3.org/2000/svg" width="217.497" height="49.383" viewBox="0 0 217.497 49.383">
  <g id="Group_16" data-name="Group 16" transform="translate(-476.048 -316.989)">
    <path id="Path_37" data-name="Path 37" d="M533.96,352.091l-49.166-.207a.21.21,0,0,0-.192.122l-1.368,2.9a.212.212,0,0,0,.19.3l49.166.207a.208.208,0,0,0,.192-.121l1.369-2.9a.212.212,0,0,0-.191-.3Z" fill="#ffd800"/>
    <path id="Path_38" data-name="Path 38" d="M551.041,331.544a.208.208,0,0,0-.177-.1l-46-.194a.21.21,0,0,0-.191.121l-1.368,2.9a.213.213,0,0,0,.19.3l45.995.194a.217.217,0,0,0,.193-.121l1.366-2.9A.206.206,0,0,0,551.041,331.544Z" fill="#ffd800"/>
    <path id="Path_39" data-name="Path 39" d="M522.445,344.892l1.367-2.9a.212.212,0,0,0-.012-.2.214.214,0,0,0-.179-.1l-45.994-.194a.21.21,0,0,0-.192.121l-1.368,2.9a.212.212,0,0,0,.191.3l45.994.194A.214.214,0,0,0,522.445,344.892Z" fill="#ffd800"/>
    <path id="Path_40" data-name="Path 40" d="M493.162,324.174l49.166.207a.21.21,0,0,0,.191-.121l1.368-2.9a.211.211,0,0,0-.19-.3l-49.166-.208a.215.215,0,0,0-.193.122l-1.366,2.9a.208.208,0,0,0,.012.2A.212.212,0,0,0,493.162,324.174Z" fill="#ffd800"/>
    <g id="Group_6" data-name="Group 6">
      <g id="Group_5" data-name="Group 5">
        <path id="Path_42" data-name="Path 42" d="M582.8,359.323l-9.211-20.056v15.925a4.887,4.887,0,0,0,.474,2.743,2.608,2.608,0,0,0,2.057.738h.844v.65h-8.3v-.65h.844a2.421,2.421,0,0,0,2.144-.914,5.333,5.333,0,0,0,.387-2.567V339.618a5.434,5.434,0,0,0-.352-2.285,1.949,1.949,0,0,0-.905-.853,4.862,4.862,0,0,0-2.118-.342v-.651h6.75l8.648,18.651,8.508-18.651h6.75v.651H598.5a2.44,2.44,0,0,0-2.162.914,5.329,5.329,0,0,0-.387,2.566v15.574a4.736,4.736,0,0,0,.492,2.743,2.608,2.608,0,0,0,2.057.738h.826v.65H589.2v-.65h.844a2.4,2.4,0,0,0,2.144-.914,5.333,5.333,0,0,0,.387-2.567V339.267l-9.193,20.056Z" fill="#221815"/>
        <path id="Path_43" data-name="Path 43" d="M610.881,342.747a7.138,7.138,0,0,1,5.871,2.777,8.53,8.53,0,0,1,1.881,5.45,10.271,10.271,0,0,1-1.037,4.377,7.368,7.368,0,0,1-6.909,4.464,6.823,6.823,0,0,1-5.783-2.9,8.985,8.985,0,0,1-1.81-5.484,9.737,9.737,0,0,1,1.1-4.4,7.506,7.506,0,0,1,2.892-3.234A7.421,7.421,0,0,1,610.881,342.747Zm-.545,1.143a3.666,3.666,0,0,0-1.872.553,3.889,3.889,0,0,0-1.521,1.943,9.361,9.361,0,0,0-.58,3.568,12.432,12.432,0,0,0,1.4,6.065q1.4,2.548,3.682,2.548a3.43,3.43,0,0,0,2.813-1.406q1.107-1.406,1.107-4.834a11.024,11.024,0,0,0-1.845-6.75A3.8,3.8,0,0,0,610.336,343.89Z" fill="#221815"/>
        <path id="Path_44" data-name="Path 44" d="M627.5,346.157q2.83-3.41,5.4-3.41a3.879,3.879,0,0,1,2.267.659,4.417,4.417,0,0,1,1.512,2.171,10.036,10.036,0,0,1,.387,3.235v6.873a5.793,5.793,0,0,0,.246,2.074,1.444,1.444,0,0,0,.624.685,3.534,3.534,0,0,0,1.59.246v.633H631.56v-.633h.334a2.684,2.684,0,0,0,1.573-.342,1.8,1.8,0,0,0,.624-1.011,10.276,10.276,0,0,0,.07-1.652v-6.592a6.7,6.7,0,0,0-.571-3.191,2.041,2.041,0,0,0-1.925-.993,5.8,5.8,0,0,0-4.166,2.285v8.491a6.069,6.069,0,0,0,.193,2.021,1.625,1.625,0,0,0,.677.747,4.2,4.2,0,0,0,1.749.237v.633h-7.963v-.633h.352a1.892,1.892,0,0,0,1.661-.624,4.552,4.552,0,0,0,.431-2.381v-5.977a25.934,25.934,0,0,0-.132-3.533,1.516,1.516,0,0,0-.4-.862,1.1,1.1,0,0,0-.729-.228,3.377,3.377,0,0,0-1.178.264l-.263-.633,4.851-1.969h.756Z" fill="#221815"/>
        <path id="Path_45" data-name="Path 45" d="M645.313,349.286a8.272,8.272,0,0,0,1.741,5.625,5.306,5.306,0,0,0,4.131,2.039,4.483,4.483,0,0,0,2.751-.87,6.428,6.428,0,0,0,1.96-2.979l.544.351a8.382,8.382,0,0,1-2.144,4.386,5.728,5.728,0,0,1-4.447,1.977,6.493,6.493,0,0,1-4.966-2.258,8.655,8.655,0,0,1-2.066-6.074,9.178,9.178,0,0,1,2.119-6.442,6.907,6.907,0,0,1,5.317-2.312,5.941,5.941,0,0,1,4.447,1.785,6.541,6.541,0,0,1,1.74,4.772Zm0-1.019h7.454a6.879,6.879,0,0,0-.37-2.18,3.491,3.491,0,0,0-1.309-1.547,3.3,3.3,0,0,0-1.819-.562,3.626,3.626,0,0,0-2.611,1.133A4.925,4.925,0,0,0,645.313,348.267Z" fill="#221815"/>
        <path id="Path_46" data-name="Path 46" d="M677.275,359.587a14.039,14.039,0,0,0,3.876,4.553,9.41,9.41,0,0,0,4.738,1.67v.562a19.281,19.281,0,0,1-5.186-.976,22.53,22.53,0,0,1-5.229-2.46,25.458,25.458,0,0,1-4.263-3.349,16.931,16.931,0,0,1-4.008-2.162,11.741,11.741,0,0,1-3.331-4.193,13.531,13.531,0,0,1-1.186-5.879,12.168,12.168,0,0,1,3.462-8.877,11.307,11.307,0,0,1,8.385-3.534,10.881,10.881,0,0,1,8.095,3.542,12.353,12.353,0,0,1,3.419,8.939,12.6,12.6,0,0,1-2.435,7.681A11.974,11.974,0,0,1,677.275,359.587ZM674.322,336.3a6.44,6.44,0,0,0-5.15,2.285q-2.461,2.865-2.461,8.772,0,5.783,2.5,8.912a6.236,6.236,0,0,0,5.115,2.408,6.613,6.613,0,0,0,5.326-2.408q2.373-2.849,2.373-8.4a17.643,17.643,0,0,0-1.3-7.189,7.324,7.324,0,0,0-2.663-3.314A6.782,6.782,0,0,0,674.322,336.3Z" fill="#221815"/>
      </g>
    </g>
    <g id="Group_7" data-name="Group 7">
      <path id="Path_47" data-name="Path 47" d="M567.845,324.025a2.366,2.366,0,0,0,1.608.59c.59,0,1.8-.26,1.8-1.429a1.358,1.358,0,0,0-1.48-1.309,5.469,5.469,0,0,0-2.749.979c.021.339.031.69.04,1.04,0,.089.061.669.061.779,0,.62-.33,1.069-.53,1.069-.119,0-.17-.069-.32-.279a2.137,2.137,0,0,0-.389-.41c-.05-.04-.351-.27-.651-.49-.179.27-.279.37-.409.37a1.1,1.1,0,0,1-.71-.45.784.784,0,0,1-.08-.48c.34.25.351.261.45.261.06,0,.08-.011.241-.141.588-.449,1.308-.949,1.858-1.329,0-.22-.02-1.19-.02-1.389,0-.091.01-.48.02-.719a3.873,3.873,0,0,1-1.079.219,1.008,1.008,0,0,1-.9-.719,1.122,1.122,0,0,0,.879.3,4.177,4.177,0,0,0,1.11-.28c.01-.159.04-.889.04-1.029a4.193,4.193,0,0,0-.11-1.089c-.049-.11-.049-.11-.54-.37a.82.82,0,0,1,.42-.09c.42,0,.99.24.99.54a1,1,0,0,1-.071.319,5.913,5.913,0,0,0-.279,1.549,2.769,2.769,0,0,0,.809-.43c.2-.159.24-.159.371-.159.309,0,.439.13.439.24s-.06.179-.24.259c-.08.031-.97.42-1.409.59-.02.48-.031.9-.031,1.069,0,.121.011.35.031.92a5.519,5.519,0,0,1,2.868-1.019,1.793,1.793,0,0,1,2.019,1.669,2.012,2.012,0,0,1-2.2,1.9,2.039,2.039,0,0,1-1.909-1.019Zm-1.24.02c0-.4,0-.449-.01-.879a6.689,6.689,0,0,0-1.289,1.309c.11.05.63.27.75.33a.778.778,0,0,0,.329.11c.19,0,.22-.19.22-.58Zm3.608-3.408a3.225,3.225,0,0,0,.64-.459c.19-.17.23-.22.23-.311,0-.319-.66-.619-1.409-.949a1.117,1.117,0,0,1,.289-.04c1.68,0,2.049,1.1,2.049,1.539,0,.21-.159.22-.18.22a.643.643,0,0,1-.25-.07.855.855,0,0,0-.42-.12,3.046,3.046,0,0,0-.949.241Z" fill="#221815"/>
      <path id="Path_48" data-name="Path 48" d="M582.462,321.037c-.1-.05-.12-.06-.271-.13a7.541,7.541,0,0,1-3.538-3.259.442.442,0,0,0-.109-.009,10.877,10.877,0,0,1-4.487,4.147l-.061-.079a13.433,13.433,0,0,0,3.968-4.358.742.742,0,0,0,.12-.36l.81.36a.139.139,0,0,1,.08.13.163.163,0,0,1-.111.16,6.46,6.46,0,0,0,4.468,2.678v.09A1.349,1.349,0,0,0,582.462,321.037Zm.229,4.577h-6.906a8.2,8.2,0,0,0-1.289.111l-.229-.43c.749.059,1.468.08,1.658.08H578.2v-2.759h-1.769a7.186,7.186,0,0,0-1.289.12l-.23-.44c.739.07,1.469.08,1.659.08H578.2v-1.449h-.36a8.314,8.314,0,0,0-1.289.11l-.23-.43c.749.06,1.469.081,1.659.081h1.4l.319-.351c.1-.109.11-.119.16-.119s.08.019.19.1l.48.35a.182.182,0,0,1,.1.15c0,.09-.08.11-.151.11h-1.718v1.449h2.1l.35-.439c.03-.041.1-.121.15-.121a.32.32,0,0,1,.19.1l.5.44c.06.06.1.09.1.161,0,.089-.08.1-.15.1h-3.238v2.759h2.7l.4-.49c.02-.02.1-.12.159-.12a.294.294,0,0,1,.17.1l.561.489a.244.244,0,0,1,.09.151C582.842,325.6,582.762,325.614,582.691,325.614Zm-5.816-.679c-.29,0-.35-.26-.43-.57a3.315,3.315,0,0,0-.429-1.149l.059-.06c.08.06.46.34.54.39a1.282,1.282,0,0,1,.579.979C577.194,324.6,577.194,324.935,576.875,324.935Zm4.178-1.15c-.05.03-.08.04-.34.08a6.07,6.07,0,0,1-1.26,1.419l-.1-.039a12.391,12.391,0,0,0,.8-1.649,1.572,1.572,0,0,0,.119-.52l.76.459c.071.04.1.07.1.131A.138.138,0,0,1,581.053,323.785Z" fill="#221815"/>
      <path id="Path_49" data-name="Path 49" d="M589.363,325.154c2.989-1.029,3.129-3.177,3.129-3.7a2.911,2.911,0,0,0-3.129-2.688,1.007,1.007,0,0,0-.369.049c.489.41.489.709.489.76,0,.119-.03.159-.239.6a24.162,24.162,0,0,1-1.9,3.658c-.05.069-.37.539-.57.619a.431.431,0,0,1-.19.04c-.23,0-.3-.11-.579-.51a1.368,1.368,0,0,0-.271-.269,1.5,1.5,0,0,1-.519-1.35,4.041,4.041,0,0,1,4.248-3.9c1.829,0,3.638,1.039,3.638,3.108a3.854,3.854,0,0,1-3.718,3.688Zm-1.129-3.887a4.824,4.824,0,0,0,.59-1.74.933.933,0,0,0-.28-.639,3.665,3.665,0,0,0-2.809,3.528c0,.76.481,1.43.87,1.43a.249.249,0,0,0,.19-.071,3.953,3.953,0,0,0,.58-.879Z" fill="#221815"/>
      <path id="Path_50" data-name="Path 50" d="M599.474,319.848h-1.689c-.011.34-.011.4-.011.949.09.03,1.45.47,1.45,1.1a.348.348,0,0,1-.36.38c-.15,0-.179-.059-.469-.549a2.76,2.76,0,0,0-.621-.789c0,.239-.019,3.6-.009,3.757a10.252,10.252,0,0,1-.01,1.24.489.489,0,0,1-.42.239.18.18,0,0,1-.2-.19c0-.03.06-.769.07-.9.07-1.369.14-2.738.14-4.108a8.076,8.076,0,0,1-2.269,3.018l-.059-.059a13.078,13.078,0,0,0,2.228-4.088h-.43a7.808,7.808,0,0,0-1.279.12l-.24-.43c.55.04,1.109.069,1.659.069h.37c-.04-2.068-.14-2.268-.24-2.5l.89.24c.089.02.15.04.15.13,0,.129-.07.18-.311.32-.009.42-.029,1.579-.029,1.808h.719l.29-.349c.06-.07.1-.13.16-.13s.11.05.18.11l.4.35c.06.059.1.09.1.16C599.634,319.838,599.544,319.848,599.474,319.848Zm4.128-1.379c0,1.259,0,2.968.009,4.2.01.46.111,2.519.111,2.849a.406.406,0,0,1-.441.46c-.219,0-.219-.04-.189-.73h-2.539c.03.379.06.819-.379.819-.231,0-.231-.07-.231-.29s.08-2.409.08-2.748c.01-.5.01-2.019.01-2.409a21.7,21.7,0,0,0-.109-3.1l.789.41h2.259l.219-.21c.061-.06.111-.12.161-.12s.139.08.179.11l.34.26a.211.211,0,0,1,.11.179C603.981,318.259,603.921,318.3,603.6,318.469Zm-.51-.3h-2.539v2.019h2.539Zm0,2.259h-2.539v2.1h2.539Zm0,2.338h-2.539v2.239h2.539Z" fill="#221815"/>
      <path id="Path_51" data-name="Path 51" d="M609.754,319.2h-1.869a8.108,8.108,0,0,0-1.28.11l-.239-.43c.749.06,1.48.08,1.659.08h.91l.19-.25c.02-.04.1-.12.149-.12s.08.02.19.1l.34.25a.207.207,0,0,1,.1.15C609.9,319.178,609.814,319.2,609.754,319.2Zm-.4,1.3H608.3a7.178,7.178,0,0,0-1.28.12l-.239-.439c.61.05,1.269.08,1.778.08l.221-.24c.1-.111.11-.121.159-.121a.405.405,0,0,1,.181.1l.289.239c.05.05.1.09.1.151C609.515,320.478,609.425,320.5,609.354,320.5Zm.06,1.319h-1.089a8.193,8.193,0,0,0-1.289.111l-.23-.43c.75.06,1.469.08,1.659.08h.2l.149-.24c.01-.01.1-.12.161-.12.03,0,.059.01.179.1l.321.241a.2.2,0,0,1,.1.15C609.574,321.8,609.484,321.816,609.414,321.816Zm-.06-3.937h-1a7.288,7.288,0,0,0-1.289.12l-.229-.44c.609.049,1.269.08,1.768.08l.2-.21c.1-.11.11-.12.15-.12.06,0,.17.09.19.1l.269.21c.04.04.1.09.1.15C609.515,317.869,609.425,317.879,609.354,317.879Zm.01,5.467a8.183,8.183,0,0,0,.01.84c.011.169.04.889.04,1.039a.352.352,0,0,1-.17.349.454.454,0,0,1-.21.061c-.21,0-.2-.2-.18-.441h-1.4a3.971,3.971,0,0,1-.01.651c-.03.289-.42.309-.42.309-.129,0-.159-.09-.159-.21,0-.529.06-1.389.06-1.928,0-.611-.03-.9-.071-1.44l.621.32h1.289l.219-.22c.071-.07.08-.08.13-.08s.071.02.141.08l.26.23c.1.09.139.13.139.19C609.654,323.2,609.414,323.315,609.364,323.346Zm-.5-.21h-1.409v1.819h1.409Zm5.848,2.759a5.4,5.4,0,0,1-2.05-3.3,3.66,3.66,0,0,1-3.288,3.508l-.04-.089a3.639,3.639,0,0,0,2.6-2.44,8.847,8.847,0,0,0,.29-2.009,1.288,1.288,0,0,0-.11-.509l.759.18c.13.03.17.05.17.119,0,.09-.04.111-.279.221-.01.15-.04.369-.04.52a5.1,5.1,0,0,0,.16.679,4.139,4.139,0,0,0,2.738,2.588v.061A1.243,1.243,0,0,0,614.712,325.895Zm-.061-4.428a4.689,4.689,0,0,1-2.048-2.889c-.27,1.64-.76,2.8-2.769,3.189l-.04-.06a3.224,3.224,0,0,0,1.979-1.84,7.191,7.191,0,0,0,.38-2.138,1.82,1.82,0,0,0-.12-.669l.77.21c.09.019.179.049.179.129,0,.1-.17.23-.28.32-.01.16-.019.2-.04.41a3.5,3.5,0,0,0,2.959,2.788v.06A1.724,1.724,0,0,0,614.651,321.467Zm-4.107,2.538a.311.311,0,0,1-.32-.3c0-.13.07-.22.29-.449a1.581,1.581,0,0,0,.46-.989h.059a2.514,2.514,0,0,1,.1.639C611.134,323.365,610.943,324.005,610.544,324.005Zm.16-4.157a.308.308,0,0,1-.3-.3c0-.11.03-.151.3-.47a1.711,1.711,0,0,0,.419-.97h.09c.011.13.03.31.03.52C611.243,319.218,611.163,319.848,610.7,319.848Zm3.917-1.379a.682.682,0,0,1-.249-.051c-.141.061-.23.1-.55.261a4.523,4.523,0,0,1-.62.269l-.03-.05a6,6,0,0,0,.64-.74,1.9,1.9,0,0,0,.23-.439l.609.42c.1.07.13.109.13.17C614.781,318.458,614.682,318.469,614.621,318.469Zm.15,4.057c-.03,0-.169-.03-.269-.049a7.962,7.962,0,0,1-1.25.559l-.029-.04a3.373,3.373,0,0,0,1-1.189l.559.429c.08.06.13.1.13.17A.125.125,0,0,1,614.771,322.526Z" fill="#221815"/>
      <path id="Path_52" data-name="Path 52" d="M620.774,325.734c1.7-1.428,1.809-3.618,1.809-5.266a21.1,21.1,0,0,0-2.328.229c0,.32.059,1.749.059,2.039,0,.2,0,.52-.239.52-.221,0-.35-.53-.35-.66,0-.1.05-.57.06-.659.02-.371.03-.94.03-1.169a6.28,6.28,0,0,0-1.46.389.762.762,0,0,1-.269.08.967.967,0,0,1-.69-.92,1.062,1.062,0,0,1,.05-.3c.36.5.55.519.72.519.14,0,1.409-.13,1.649-.16a10.623,10.623,0,0,0-.14-1.849c-.08-.139-.159-.17-.68-.34a1.086,1.086,0,0,1,.58-.209c.23,0,.8.2.8.49a.507.507,0,0,1-.03.149,3.2,3.2,0,0,0-.12,1c0,.079.009.48.02.719,1.02-.1,1.159-.109,2.349-.2-.04-1.56-.04-1.85-.16-2.02-.111-.149-.34-.2-.76-.3a1.438,1.438,0,0,1,.639-.229c.231,0,.95.17.95.51a3.471,3.471,0,0,1-.11.46,13.339,13.339,0,0,0-.06,1.548,9.649,9.649,0,0,0,1.359-.129,1.53,1.53,0,0,1,.42-.111,3.706,3.706,0,0,1,.76.29.267.267,0,0,1,.139.25c0,.18-.12.23-.189.23-.11,0-.56-.1-.66-.11a11.168,11.168,0,0,0-1.829-.07,14.89,14.89,0,0,1-.1,2.109,4.3,4.3,0,0,1-2.169,3.248Z" fill="#221815"/>
      <path id="Path_53" data-name="Path 53" d="M628.837,321.367a4.775,4.775,0,0,0,1.119.04c.18,0,3.488-.02,4.188-.1a.8.8,0,0,0,.32-.07.572.572,0,0,1,.189-.03c.05,0,.93.1.93.39,0,.24-.26.24-.53.24-.15,0-1.089-.061-1.3-.061-.6,0-3.428.05-3.918.1a2.79,2.79,0,0,0-.69.14.953.953,0,0,1-.309.089c-.07,0-.13,0-.37-.29a1.1,1.1,0,0,1-.29-.719.762.762,0,0,1,.08-.39A.976.976,0,0,0,628.837,321.367Z" fill="#221815"/>
      <path id="Path_54" data-name="Path 54" d="M642.644,319.588c0-.11-.38-.45-.39-.45a.964.964,0,0,1,.71.17,1.034,1.034,0,0,1,.6.759c0,.1-.02.111-.259.17a2.564,2.564,0,0,0-.41.14,23.944,23.944,0,0,1-2.918,1.34,7.342,7.342,0,0,1-1.06.25q-.03.57-.03,1.138c0,.531.03.8.309.991a3.886,3.886,0,0,0,1.749.309,6.312,6.312,0,0,0,1.91-.3,1.39,1.39,0,0,1,.36-.07,1.508,1.508,0,0,1,.529.13.257.257,0,0,1,.17.231.3.3,0,0,1-.2.249,17.608,17.608,0,0,1-2.538.209c-.16,0-1.86-.009-2.36-.489-.349-.33-.4-.76-.4-1.579,0-.36.061-1.949.07-2.279.01-.4.01-.8.01-1.2,0-.329,0-.43-.13-.579a1.607,1.607,0,0,0-.689-.411c.239-.12.29-.149.409-.149.24,0,1.2.3,1.2.619,0,.08-.029.12-.149.33a.505.505,0,0,0-.08.3c-.05.659-.1,1.709-.13,2.368C640.385,321.4,642.644,319.867,642.644,319.588Zm.919-1.52a.68.68,0,0,1,.49.611c0,.209-.11.3-.2.3s-.121-.031-.391-.371a4.1,4.1,0,0,0-1.109-.869A3.922,3.922,0,0,1,643.563,318.068Zm-.06-.809c.33,0,1.6.22,1.6.889,0,.13-.05.26-.17.26-.1,0-.14-.029-.451-.319l-.519-.4a3.83,3.83,0,0,0-.72-.4A1.714,1.714,0,0,1,643.5,317.259Z" fill="#221815"/>
      <path id="Path_55" data-name="Path 55" d="M646.217,324.955a11.136,11.136,0,0,0,5.457-6.017c-.31.06-1.649.29-1.919.35a5.034,5.034,0,0,0-1.15.39c-.139.08-.179.1-.239.1-.13,0-.3-.239-.42-.409a.814.814,0,0,1-.179-.48,1.719,1.719,0,0,1,.089-.44,1.528,1.528,0,0,0,.21.33.536.536,0,0,0,.49.26,18.932,18.932,0,0,0,2.768-.4,2.162,2.162,0,0,0,.4-.231c.079-.059.109-.059.139-.059.1,0,.78.519.78.679,0,.12-.06.14-.38.24-.05.01-.08.08-.11.14a12.214,12.214,0,0,1-1.409,2.4c1.309.63,2.938,1.728,2.938,2.718,0,.07,0,.39-.3.39-.15,0-.22-.1-.289-.22a7.836,7.836,0,0,0-2.469-2.728,7.892,7.892,0,0,1-4.388,3.068Z" fill="#221815"/>
      <path id="Path_56" data-name="Path 56" d="M657.044,317.129h3.3v.4h-2.9v8.7h-.4Z" fill="#221815"/>
      <path id="Path_57" data-name="Path 57" d="M668.063,324.335c0,.02,0,.37-.29.37-.159,0-.169-.01-.569-.62a8.5,8.5,0,0,0-1.609-1.7,7.2,7.2,0,0,0-.909-.62,4.263,4.263,0,0,1,2.148,1,16.592,16.592,0,0,0,2.579-3.048c-.479.01-1.47.03-1.889.08-2.768.349-3.488.439-3.878.72-.15.1-.169.109-.23.109a1.239,1.239,0,0,1-.869-1.159.83.83,0,0,1,.05-.27.924.924,0,0,0,.939.61c.26,0,5.307-.38,5.457-.4a1.2,1.2,0,0,0,.64-.24c.149-.1.189-.12.229-.12.12,0,.441.38.58.54s.17.2.17.29c0,.109-.04.12-.37.2-.21.051-.25.09-.659.49a16.9,16.9,0,0,1-2.589,2.319C667.394,323.2,668.063,323.735,668.063,324.335Z" fill="#221815"/>
      <path id="Path_58" data-name="Path 58" d="M672.6,324.065a12.245,12.245,0,0,0,4.307-4.288c0-.04-.04-.049-.059-.049-.051,0-.611.179-.72.21-.4.1-1.04.209-1.43.349-.069.03-.34.2-.4.22a.158.158,0,0,1-.07.011c-.07,0-.121,0-.48-.351-.22-.22-.24-.27-.24-.459a2.652,2.652,0,0,1,.03-.37c.44.46.69.46.84.46a9.958,9.958,0,0,0,2.618-.441c.04-.019.21-.159.27-.2a.122.122,0,0,1,.09-.04c.1,0,.23.11.379.239.33.281.361.331.361.431s-.05.119-.26.17a.789.789,0,0,0-.47.34,16.646,16.646,0,0,1-1.13,1.289c.29.17.311.189.311.279a1.76,1.76,0,0,1-.04.26c-.011.24-.021,1.04-.021,1.22,0,.569.05,1.468.05,2.039,0,.09,0,.51-.25.51-.2,0-.379-.4-.379-.55,0-.09.06-.48.07-.56.03-.5.03-1.38.03-1.649a8.182,8.182,0,0,0-.05-1.14.487.487,0,0,0-.05-.08,9.1,9.1,0,0,1-3.268,2.239Zm2.539-6.936a2.722,2.722,0,0,1,1.919.74.5.5,0,0,1,.09.289.263.263,0,0,1-.271.3c-.14,0-.189-.05-.649-.489a4.585,4.585,0,0,0-1.49-.82C674.9,317.139,675,317.129,675.137,317.129Zm4.087,5.317c.32.241.679.58.679.919,0,.04-.009.321-.259.321-.15,0-.25-.121-.34-.22a7.8,7.8,0,0,0-2.429-2.07A5.25,5.25,0,0,1,679.224,322.446Z" fill="#221815"/>
      <path id="Path_59" data-name="Path 59" d="M681.717,325.645a11.657,11.657,0,0,0,5.207-5.828c-.29.021-1.6.21-1.869.21a1.217,1.217,0,0,1-.6-.179,8.469,8.469,0,0,1-1.289,1.479,4.9,4.9,0,0,1-1.35.9l-.04-.071a8.5,8.5,0,0,0,2.649-3.618c0-.2-.18-.3-.56-.5a1.467,1.467,0,0,1,.5-.07c.18,0,.3,0,.789.349.181.13.21.17.21.27s-.04.15-.149.261a4.736,4.736,0,0,0-.62.8,3.4,3.4,0,0,0,.36.021,7.045,7.045,0,0,0,1.969-.29c.05-.03.26-.21.319-.21s.08.02.141.08c.42.34.619.5.619.64,0,.059-.02.059-.23.179-.33.18-.379.21-.609.69a8.794,8.794,0,0,1-5.437,4.958Z" fill="#221815"/>
      <path id="Path_60" data-name="Path 60" d="M693.545,326.145h-3.3v-.4h2.9v-8.695h.4Z" fill="#221815"/>
    </g>
  </g>
</svg>
