<svg id="clock" xmlns="http://www.w3.org/2000/svg" width="15" height="15" viewBox="0 0 15 15">
  <path id="Path_475" data-name="Path 475" d="M7.6,14.163a6.563,6.563,0,1,1,4.64-1.922A6.563,6.563,0,0,1,7.6,14.163ZM.1,7.6A7.5,7.5,0,1,0,2.3,2.3,7.5,7.5,0,0,0,.1,7.6Z" transform="translate(-0.1 -0.1)" fill="#9b9b9b" fill-rule="evenodd"/>
  <path id="Path_476" data-name="Path 476" d="M.719.2A.469.469,0,0,0,.25.669V5.825a.469.469,0,0,0,.469.469H4.937a.469.469,0,1,0,0-.937H1.187V.669A.469.469,0,0,0,.719.2Z" transform="translate(6.781 1.675)" fill="#9b9b9b" fill-rule="evenodd"/>
</svg>
