<svg xmlns="http://www.w3.org/2000/svg" width="12" height="10.668" viewBox="0 0 12 10.668">
  <path id="edit-regular" d="M8.381,7.112l.667-.667a.167.167,0,0,1,.285.119V9.593a1,1,0,0,1-1,1H1a1,1,0,0,1-1-1V2.26a1,1,0,0,1,1-1H6.7a.168.168,0,0,1,.119.285l-.667.667a.165.165,0,0,1-.119.048H1V9.593H8.334V7.229A.164.164,0,0,1,8.381,7.112Zm3.263-4.2L6.173,8.379,4.29,8.587a.861.861,0,0,1-.95-.95l.208-1.883L9.019.283a1.216,1.216,0,0,1,1.723,0l.9.9a1.22,1.22,0,0,1,0,1.725Zm-2.058.644-1.21-1.21L4.5,6.214l-.152,1.36,1.36-.152Zm1.35-1.66-.9-.9a.218.218,0,0,0-.308,0l-.644.644,1.21,1.21.644-.644A.222.222,0,0,0,10.936,1.891Z" transform="translate(0 0.075)" fill="#221815"/>
</svg>
