<svg xmlns="http://www.w3.org/2000/svg" xmlns:xlink="http://www.w3.org/1999/xlink" width="30.543" height="30.543" viewBox="0 0 30.543 30.543">
  <defs>
    <linearGradient id="linear-gradient" y1="0.409" x2="1" y2="0.401" gradientUnits="objectBoundingBox">
      <stop offset="0" stop-color="#a4a4a4"/>
      <stop offset="0.5" stop-color="#fff"/>
      <stop offset="1" stop-color="#a4a4a4"/>
    </linearGradient>
  </defs>
  <g id="Group_686" data-name="Group 686" transform="translate(22233 19466)">
    <g id="Group_371" data-name="Group 371" transform="translate(-23496 -25127)">
      <path id="Path_868" data-name="Path 868" d="M0,0H30.543L0,30.543Z" transform="translate(1263 5661)" fill="#221815"/>
    </g>
    <path id="crown-solid" d="M8.484,7.2H1.8a.258.258,0,0,0-.257.257v.514a.258.258,0,0,0,.257.257H8.484a.258.258,0,0,0,.257-.257V7.455A.258.258,0,0,0,8.484,7.2ZM9.513,2.057a.771.771,0,0,0-.771.771.756.756,0,0,0,.071.318l-1.163.7a.514.514,0,0,1-.71-.186L5.629,1.366a.771.771,0,1,0-.974,0L3.345,3.657a.514.514,0,0,1-.71.186l-1.162-.7a.771.771,0,1,0-.7.453A.788.788,0,0,0,.9,3.586l1.162,3.1h6.17l1.162-3.1a.788.788,0,0,0,.124.013.771.771,0,1,0,0-1.542Z" transform="translate(-22229 -19462)" fill="url(#linear-gradient)"/>
  </g>
</svg>
