<svg xmlns="http://www.w3.org/2000/svg" width="528.649" height="141.559" viewBox="0 0 528.649 141.559">
  <g id="Group_685" data-name="Group 685" transform="translate(-347.962 -303.397)">
    <path id="Path_750" data-name="Path 750" d="M205.548,132.861,164.063,42.527v71.726q0,9.9,2.142,12.352,2.925,3.332,9.261,3.328h3.8v2.929H141.9v-2.929h3.8q6.81,0,9.656-4.115,1.739-2.535,1.743-11.565V44.111q0-7.126-1.581-10.292a8.789,8.789,0,0,0-4.081-3.84q-2.965-1.542-9.539-1.547V25.507h30.4L211.251,109.5l38.315-83.995h30.4v2.925h-3.719q-6.883,0-9.735,4.122-1.745,2.535-1.743,11.557v70.141q0,9.9,2.217,12.352,2.925,3.332,9.261,3.328h3.719v2.929h-45.6v-2.929h3.8q6.889,0,9.66-4.115,1.745-2.535,1.739-11.565V42.527l-41.406,90.334Z" transform="translate(206.064 280.348)" fill="#221815"/>
    <path id="Path_751" data-name="Path 751" d="M218.154,34.192q16.466,0,26.442,12.51a38.415,38.415,0,0,1,8.47,24.541A46.3,46.3,0,0,1,248.4,90.958a33.179,33.179,0,0,1-31.114,20.11q-16.387,0-26.05-13.067a40.47,40.47,0,0,1-8.15-24.7,43.881,43.881,0,0,1,4.943-19.832q4.952-9.854,13.025-14.569a33.426,33.426,0,0,1,17.1-4.709M215.7,39.338a16.539,16.539,0,0,0-8.432,2.5q-4.235,2.49-6.848,8.745T197.807,66.65q0,15.834,6.294,27.316t16.583,11.482a15.449,15.449,0,0,0,12.671-6.34q4.986-6.33,4.984-21.767,0-19.318-8.308-30.406-5.624-7.6-14.331-7.6" transform="translate(319.924 304.359)" fill="#221815"/>
    <path id="Path_752" data-name="Path 752" d="M230.829,49.551q12.745-15.354,24.3-15.359a17.493,17.493,0,0,1,10.217,2.97q4.275,2.965,6.81,9.777,1.739,4.749,1.743,14.565V92.46q0,6.889,1.107,9.347a6.487,6.487,0,0,0,2.812,3.083q1.937,1.107,7.16,1.107v2.854H249.117V106h1.506q5.065,0,7.085-1.543a8.09,8.09,0,0,0,2.808-4.548,46.4,46.4,0,0,0,.316-7.446V62.776q0-9.9-2.571-14.373t-8.67-4.472q-9.424,0-18.762,10.292V92.46q0,7.363.87,9.106a7.3,7.3,0,0,0,3.049,3.366Q236.685,106,242.623,106v2.854H206.759V106h1.585q5.539,0,7.48-2.808t1.942-10.729V65.547q0-13.067-.595-15.913a6.848,6.848,0,0,0-1.822-3.885,4.964,4.964,0,0,0-3.283-1.024,15.319,15.319,0,0,0-5.308,1.182l-1.186-2.846,21.849-8.869h3.407Z" transform="translate(382.094 304.359)" fill="#221815"/>
    <path id="Path_753" data-name="Path 753" d="M241.853,63.7q-.085,16.144,7.834,25.335t18.608,9.182A20.147,20.147,0,0,0,280.683,94.3q5.263-3.919,8.828-13.417l2.454,1.585a37.735,37.735,0,0,1-9.66,19.749,25.789,25.789,0,0,1-20.031,8.911q-13.055,0-22.365-10.176t-9.3-27.353q0-18.6,9.539-29.017A31.116,31.116,0,0,1,264.1,34.171q12.191,0,20.031,8.037t7.838,21.5Zm0-4.593h33.564q-.39-6.968-1.66-9.818a15.753,15.753,0,0,0-5.9-6.968,14.856,14.856,0,0,0-8.2-2.534A16.32,16.32,0,0,0,247.91,44.9q-5.189,5.11-6.057,14.211" transform="translate(451.303 304.301)" fill="#221815"/>
    <path id="Path_754" data-name="Path 754" d="M320.087,135.852q8.075,13.936,17.46,20.506a42.329,42.329,0,0,0,21.333,7.522v2.534a86.9,86.9,0,0,1-23.351-4.393,101.733,101.733,0,0,1-23.558-11.083,114.787,114.787,0,0,1-19.2-15.085q-11.4-4.591-18.051-9.735a52.94,52.94,0,0,1-15-18.883q-5.342-11.209-5.346-26.48,0-24.072,15.6-39.983A50.928,50.928,0,0,1,307.74,24.854q21.057,0,36.459,15.954t15.4,40.258q0,19.713-10.966,34.6a53.943,53.943,0,0,1-28.542,20.186m-13.3-104.9q-14.4,0-23.193,10.292-11.085,12.9-11.083,39.509,0,26.043,11.241,40.138,8.707,10.842,23.035,10.846,14.885,0,23.987-10.846,10.689-12.83,10.687-37.849,0-19.233-5.858-32.375-4.512-10.136-11.994-14.926a30.53,30.53,0,0,0-16.824-4.789" transform="translate(517.016 278.543)" fill="#221815"/>
  </g>
</svg>
