<svg xmlns="http://www.w3.org/2000/svg" width="100" height="45" viewBox="0 0 100 45">
  <g id="Group_93" data-name="Group 93" transform="translate(-39.936 -17.457)">
    <path id="Path_744" data-name="Path 744" d="M105.959,52.865H49.938a.239.239,0,0,0-.219.14l-1.545,3.312a.241.241,0,0,0,.016.23.239.239,0,0,0,.2.113h56.021a.239.239,0,0,0,.218-.14l1.544-3.312a.238.238,0,0,0-.014-.231.241.241,0,0,0-.2-.112m19.363-23.494a.24.24,0,0,0-.2-.112H72.712a.244.244,0,0,0-.219.14L70.95,32.711a.243.243,0,0,0,.219.343h52.407a.243.243,0,0,0,.219-.14l1.543-3.313a.236.236,0,0,0-.016-.23M92.8,44.716,94.348,41.4a.243.243,0,0,0-.016-.231.24.24,0,0,0-.2-.111H41.721a.239.239,0,0,0-.218.138L39.96,44.513a.242.242,0,0,0,.013.232.248.248,0,0,0,.2.111H92.584a.24.24,0,0,0,.219-.14M59.339,21.252h56.02a.243.243,0,0,0,.219-.14l1.544-3.313a.241.241,0,0,0-.015-.231.243.243,0,0,0-.2-.111H60.882a.239.239,0,0,0-.218.14L59.12,20.908a.243.243,0,0,0,.219.344" fill="#ffd800"/>
  </g>
</svg>
