<svg xmlns="http://www.w3.org/2000/svg" width="12.5" height="9.722" viewBox="0 0 12.5 9.722"><path d="M11.458,32H1.042A1.042,1.042,0,0,0,0,33.042v7.639a1.042,1.042,0,0,0,1.042,1.042H11.458A1.042,1.042,0,0,0,12.5,40.681V33.042A1.042,1.042,0,0,0,11.458,32ZM3.819,34.083a1.389,1.389,0,1,1-1.389,1.389A1.39,1.39,0,0,1,3.819,34.083ZM6.25,39.222a.455.455,0,0,1-.486.417H1.875a.455.455,0,0,1-.486-.417v-.417a1.367,1.367,0,0,1,1.458-1.25h.109a2.235,2.235,0,0,0,1.727,0h.109a1.367,1.367,0,0,1,1.458,1.25Zm4.861-1.146a.174.174,0,0,1-.174.174H7.813a.174.174,0,0,1-.174-.174v-.347a.174.174,0,0,1,.174-.174h3.125a.174.174,0,0,1,.174.174Zm0-1.389a.174.174,0,0,1-.174.174H7.813a.174.174,0,0,1-.174-.174V36.34a.174.174,0,0,1,.174-.174h3.125a.174.174,0,0,1,.174.174Zm0-1.389a.174.174,0,0,1-.174.174H7.813a.174.174,0,0,1-.174-.174v-.347a.174.174,0,0,1,.174-.174h3.125a.174.174,0,0,1,.174.174Z" transform="translate(0 -32)" fill="#221815"/></svg>