<svg id="house-fill" xmlns="http://www.w3.org/2000/svg" width="12" height="12.924" viewBox="0 0 12 12.924">
  <path id="Path_570" data-name="Path 570" d="M4.79,9.377v3.235a.462.462,0,0,1-.462.462H.637a.462.462,0,0,1-.462-.462V6.151A.462.462,0,0,1,.31,5.824L5.848.286a.462.462,0,0,1,.654,0L12.04,5.824a.461.461,0,0,1,.135.327v6.462a.462.462,0,0,1-.462.462H8.021a.462.462,0,0,1-.462-.462V9.382A.5.5,0,0,0,7.1,8.92H5.252A.5.5,0,0,0,4.79,9.377Z" transform="translate(-0.175 -0.15)" fill="#9b9b9b"/>
  <path id="Path_571" data-name="Path 571" d="M2.5.662V3.892L.65,2.046V.662A.462.462,0,0,1,1.112.2h.923A.462.462,0,0,1,2.5.662Z" transform="translate(8.119 0.724)" fill="#9b9b9b" fill-rule="evenodd"/>
</svg>
