<svg xmlns="http://www.w3.org/2000/svg" width="12" height="9.333" viewBox="0 0 12 9.333">
  <path id="comments-solid" d="M8.667,35.333C8.667,33.492,6.727,32,4.333,32S0,33.492,0,35.333A2.826,2.826,0,0,0,.792,37.25a4.689,4.689,0,0,1-.746,1.135.166.166,0,0,0-.031.181.163.163,0,0,0,.152.1,3.668,3.668,0,0,0,1.848-.521,5.3,5.3,0,0,0,2.319.521C6.727,38.667,8.667,37.175,8.667,35.333Zm2.542,4.583A2.822,2.822,0,0,0,12,38a3.466,3.466,0,0,0-2.694-3.085,3.1,3.1,0,0,1,.027.419c0,2.206-2.244,4-5,4a6.247,6.247,0,0,1-.66-.04,4.5,4.5,0,0,0,3.994,2.04,5.272,5.272,0,0,0,2.319-.521,3.668,3.668,0,0,0,1.848.521.164.164,0,0,0,.152-.1.167.167,0,0,0-.031-.181A4.639,4.639,0,0,1,11.208,39.917Z" transform="translate(0 -32)" fill="#9b9b9b"/>
</svg>
