<svg xmlns="http://www.w3.org/2000/svg" width="10" height="10" viewBox="0 0 10 10">
  <path id="save-regular" d="M9.686,34.186,7.814,32.314A1.071,1.071,0,0,0,7.056,32H1.071A1.071,1.071,0,0,0,0,33.071v7.857A1.071,1.071,0,0,0,1.071,42H8.929A1.071,1.071,0,0,0,10,40.929V34.944a1.071,1.071,0,0,0-.314-.758ZM6.071,33.071v1.786H3.214V33.071Zm2.723,7.857H1.205a.134.134,0,0,1-.134-.134V33.205a.134.134,0,0,1,.134-.134h.937v2.321a.536.536,0,0,0,.536.536H6.607a.536.536,0,0,0,.536-.536V33.158L8.889,34.9A.134.134,0,0,1,8.929,35v5.8A.134.134,0,0,1,8.795,40.929ZM5,36.464a1.964,1.964,0,1,0,1.964,1.964A1.967,1.967,0,0,0,5,36.464Zm0,2.857a.893.893,0,1,1,.893-.893A.894.894,0,0,1,5,39.321Z" transform="translate(0 -32)" fill="#221815"/>
</svg>
