<svg xmlns="http://www.w3.org/2000/svg" width="197.002" height="272.004" viewBox="0 0 197.002 272.004">
  <g id="Union_4" data-name="Union 4" transform="translate(-22839 -21715.998)" fill="#fff">
    <path d="M 23031.001953125 21987.501953125 L 22844 21987.501953125 C 22841.51953125 21987.501953125 22839.5 21985.482421875 22839.5 21983 L 22839.5 21725 C 22839.5 21722.51953125 22841.51953125 21720.5 22844 21720.5 L 23022.80078125 21720.5 L 23023.041015625 21720.5 L 23023.19140625 21720.3125 L 23026 21716.798828125 L 23028.810546875 21720.3125 L 23028.9609375 21720.5 L 23029.201171875 21720.5 L 23031.001953125 21720.5 C 23033.482421875 21720.5 23035.501953125 21722.51953125 23035.501953125 21725 L 23035.501953125 21983 C 23035.501953125 21985.482421875 23033.482421875 21987.501953125 23031.001953125 21987.501953125 Z" stroke="none"/>
    <path d="M 23031.001953125 21987.001953125 C 23033.20703125 21987.001953125 23035.001953125 21985.20703125 23035.001953125 21983 L 23035.001953125 21725 C 23035.001953125 21722.794921875 23033.20703125 21721 23031.001953125 21721 L 23029.201171875 21721 L 23028.720703125 21721 L 23028.419921875 21720.625 L 23026 21717.599609375 L 23023.58203125 21720.625 L 23023.28125 21721 L 23022.80078125 21721 L 22844 21721 C 22841.794921875 21721 22840 21722.794921875 22840 21725 L 22840 21983 C 22840 21985.20703125 22841.794921875 21987.001953125 22844 21987.001953125 L 23031.001953125 21987.001953125 M 23031.001953125 21988.001953125 L 22844 21988.001953125 C 22841.236328125 21988.001953125 22839 21985.763671875 22839 21983 L 22839 21725 C 22839 21722.236328125 22841.236328125 21720 22844 21720 L 23022.80078125 21720 L 23026 21715.998046875 L 23029.201171875 21720 L 23031.001953125 21720 C 23033.759765625 21720 23036.001953125 21722.236328125 23036.001953125 21725 L 23036.001953125 21983 C 23036.001953125 21985.763671875 23033.759765625 21988.001953125 23031.001953125 21988.001953125 Z" stroke="none" fill="#9b9b9b"/>
  </g>
</svg>
