<svg xmlns="http://www.w3.org/2000/svg" width="10" height="7.5" viewBox="0 0 10 7.5">
  <path id="envelope-regular" d="M9.063,64H.938A.937.937,0,0,0,0,64.938v5.625a.937.937,0,0,0,.938.938H9.063A.937.937,0,0,0,10,70.563V64.938A.937.937,0,0,0,9.063,64Zm0,.938v.8c-.438.357-1.136.911-2.629,2.08-.329.259-.98.88-1.434.873s-1.105-.614-1.434-.873c-1.492-1.169-2.191-1.723-2.629-2.08v-.8ZM.938,70.563V66.937c.448.356,1.082.857,2.05,1.614A3.588,3.588,0,0,0,5,69.625a3.583,3.583,0,0,0,2.013-1.073c.967-.757,1.6-1.258,2.05-1.614v3.625Z" transform="translate(0 -64)" fill="#221815"/>
</svg>
