<svg xmlns="http://www.w3.org/2000/svg" width="34.952" height="33.303" viewBox="0 0 34.952 33.303"><g transform="translate(0 0)"><path d="M438.343,295.527c0-7.82-7.84-14.182-17.476-14.182s-17.476,6.362-17.476,14.182c0,7.011,6.217,12.882,14.615,13.992.569.123,1.344.375,1.54.862a3.589,3.589,0,0,1,.056,1.58s-.2,1.233-.249,1.5c-.076.442-.351,1.728,1.514.942s10.064-5.926,13.731-10.146h0a12.617,12.617,0,0,0,3.746-8.726" transform="translate(-403.391 -281.345)" fill="#fff"/><path d="M417.316,291.748H416.09a.34.34,0,0,0-.34.34V299.7a.339.339,0,0,0,.34.339h1.226a.339.339,0,0,0,.34-.339v-7.615a.34.34,0,0,0-.34-.34" transform="translate(-403.391 -281.345)" fill="#00b900"/><path d="M425.754,291.748h-1.226a.341.341,0,0,0-.341.34v4.524L420.7,291.9a.288.288,0,0,0-.027-.034l0,0-.02-.021-.007-.006-.018-.015-.009-.007-.018-.012-.01-.006-.018-.011-.011-.005-.019-.008-.011,0-.02-.007-.012,0-.02,0-.014,0-.018,0h-1.255a.341.341,0,0,0-.341.34V299.7a.34.34,0,0,0,.341.339h1.225a.34.34,0,0,0,.341-.339V295.18l3.494,4.719a.343.343,0,0,0,.086.084l0,0,.021.012.009.006.017.008.016.006.011,0,.023.008h.005a.346.346,0,0,0,.087.011h1.226a.339.339,0,0,0,.34-.339v-7.615a.34.34,0,0,0-.34-.34" transform="translate(-403.391 -281.345)" fill="#00b900"/><path d="M414.361,298.136H411.03v-6.048a.34.34,0,0,0-.34-.34h-1.226a.34.34,0,0,0-.34.34V299.7h0a.337.337,0,0,0,.1.235l0,.005.005.005a.343.343,0,0,0,.235.1h4.9a.341.341,0,0,0,.34-.341v-1.226a.34.34,0,0,0-.34-.34" transform="translate(-403.391 -281.345)" fill="#00b900"/><path d="M432.523,293.655a.34.34,0,0,0,.34-.341v-1.225a.341.341,0,0,0-.34-.341h-4.9a.343.343,0,0,0-.237.1l0,0-.006.006a.338.338,0,0,0-.094.234h0V299.7h0a.337.337,0,0,0,.1.235l0,.005.005,0a.334.334,0,0,0,.235.1h4.9a.341.341,0,0,0,.34-.341v-1.226a.34.34,0,0,0-.34-.34h-3.33v-1.287h3.33a.341.341,0,0,0,.34-.341v-1.225a.34.34,0,0,0-.34-.341h-3.33v-1.287Z" transform="translate(-403.391 -281.345)" fill="#00b900"/></g></svg>