<svg xmlns="http://www.w3.org/2000/svg" width="48" height="48" viewBox="0 0 48 48"><path d="M0,0H48V48H0Z" fill="#dd4b39"/><g transform="translate(5.86 14.09)"><path d="M85.548,186.938c.11.759.207,5.236-.11,5.576-.636.676-3.542.5-4.245.546l-.241,1.387c1.279.039,5.445-.1,6.74-.1,2.552,0,7.024-.012,7.656.035l.077-1.455c-.645-.109-4.165-.013-4.652-.124a55.336,55.336,0,0,1-.119-5.906c.486-1.407,7.881-7.14,8.693-7.361.183-.035.454-.1.761-.164h2.383l.372-.549a.066.066,0,0,1,.028-.006l.923-1.337-.045,0,.1-.144H90.954l.5,2.039h3.525l-5.929,5.372c-1.211-1.677-4.047-5.172-6.026-8.063h4.438v-1.553l.052-.342a.277.277,0,0,0-.052-.007v-.14H72.739v2.04H77.1C78.8,178.006,85.279,186.129,85.548,186.938Z" transform="translate(-72.739 -174.637)" fill="#fff"/><path d="M428.92,259.4l.054,9.208,1.979.158,2.3-8.933C432.871,259.819,429.375,259.486,428.92,259.4Z" transform="translate(-400.224 -252.569)" fill="#fff"/><path d="M427.446,393.822l.316-2.136-1.14-.056-1.271-.157.011,2.181,1,.087Z" transform="translate(-396.943 -374.003)" fill="#fff"/><path d="M427.446,393.822l.316-2.136-1.14-.056-1.271-.157.011,2.181,1,.087Z" transform="translate(-396.943 -374.003)" fill="#fff"/><path d="M428.92,259.4l.054,9.208,1.979.158,2.3-8.933C432.871,259.819,429.375,259.486,428.92,259.4Z" transform="translate(-400.224 -252.569)" fill="#fff"/></g></svg>